<?xml version="1.0" standalone="no"?><!DOCTYPE svg PUBLIC "-//W3C//DTD SVG 1.1//EN" "http://www.w3.org/Graphics/SVG/1.1/DTD/svg11.dtd"><svg t="1699578709207" class="icon" viewBox="0 0 1024 1024" version="1.1" xmlns="http://www.w3.org/2000/svg" p-id="4022" width="32" height="32" xmlns:xlink="http://www.w3.org/1999/xlink"><path d="M881 562H81c-27.6 0-50-22.4-50-50s22.4-50 50-50h800c27.6 0 50 22.4 50 50s-22.4 50-50 50z" p-id="4023"></path><path d="M907.6 540.7L695.5 328.6c-19.5-19.5-19.5-51.2 0-70.7s51.2-19.5 70.7 0L978.4 470c19.5 19.5 19.5 51.2 0 70.7-19.6 19.6-51.2 19.6-70.8 0z" p-id="4024"></path><path d="M695.5 695.4l212.1-212.1c19.5-19.5 51.2-19.5 70.7 0s19.5 51.2 0 70.7L766.2 766.1c-19.5 19.5-51.2 19.5-70.7 0s-19.5-51.2 0-70.7z" p-id="4025"></path></svg>